<?xml version="1.0" standalone="no"?>
<!DOCTYPE svg PUBLIC "-//W3C//DTD SVG 20010904//EN"
 "http://www.w3.org/TR/2001/REC-SVG-20010904/DTD/svg10.dtd">
<svg version="1.0"
  xmlns="http://www.w3.org/2000/svg"
 width="512.000000pt" height="512.000000pt" viewBox="0 0 512.000000 512.000000"
 preserveAspectRatio="xMidYMid meet">
  <metadata>
Created by potrace 1.11, written by Peter Selinger 2001-2013
</metadata>
  <g transform="translate(0.000000,512.000000) scale(0.100000,-0.100000)"
fill="#000000" stroke="none">
    <path d="M0 2560 l0 -2560 2560 0 2560 0 0 2560 0 2560 -2560 0 -2560 0 0
-2560z m4805 2251 c7 -1 10 -515 9 -1523 -1 -838 -2 -1527 -3 -1531 -1 -10
-186 -195 -241 -242 -244 -209 -540 -377 -840 -478 -419 -141 -831 -148 -1168
-21 -320 120 -586 371 -741 699 -32 68 -87 224 -96 275 -3 14 -7 34 -9 45 -30
150 -24 343 15 504 77 319 261 532 544 629 90 30 138 37 270 36 106 0 128 -3
188 -27 109 -43 202 -116 302 -239 21 -27 42 -48 46 -48 9 0 3 76 -16 190 -11
64 -49 193 -81 270 -149 368 -432 615 -804 703 -230 55 -516 57 -789 7 -34 -6
-73 -13 -88 -16 -16 -3 -37 -8 -48 -11 -11 -4 -26 -8 -33 -9 -17 -3 -153 -43
-172 -51 -8 -3 -20 -7 -25 -8 -28 -6 -180 -74 -262 -116 -122 -63 -248 -145
-359 -235 -51 -41 -93 -74 -95 -74 -2 0 -4 286 -4 635 0 542 2 635 14 637 13
3 4461 1 4486 -1z"/>
  </g>
</svg>
