<svg aria-hidden="true" data-icon="exit-fullscreen" role="img" xmlns="http://www.w3.org/2000/svg" viewBox="0 0 512 512">
    <path fill="currentColor" d="M142.09,102.62v-58a16,16,0,0,1,16-16h24.68a16.06,16.06,0,0,1,16.05,16.05V182.82a16.06,16.06,0,0,1-16.05,16.05H44.57a16.06,16.06,0,0,1-16-16.05V158.14a16,16,0,0,1,16.05-16h58.05L4.7,44.17a16,16,0,0,1,0-22.7L21.47,4.7a16,16,0,0,1,22.7,0Zm227.82,0v-58a16,16,0,0,0-16.05-16H329.18a16.06,16.06,0,0,0-16.05,16.05V182.82a16.06,16.06,0,0,0,16.05,16.05H467.43a16.06,16.06,0,0,0,16.05-16.05V158.14a16,16,0,0,0-16.05-16H409.38L507.3,44.17a16,16,0,0,0,0-22.7L490.53,4.7a16,16,0,0,0-22.7,0Zm0,306.76v58.05a16,16,0,0,1-16.05,16.05H329.18a16.06,16.06,0,0,1-16.05-16.05V329.18a16.06,16.06,0,0,1,16.05-16.05H467.43a16.06,16.06,0,0,1,16.05,16.05v24.68a16,16,0,0,1-16.05,16.05H409.38l97.92,97.92a16,16,0,0,1,0,22.7L490.53,507.3a16,16,0,0,1-22.7,0Zm-227.82,0v58.05a16,16,0,0,0,16,16.05h24.68a16.06,16.06,0,0,0,16.05-16.05V329.18a16.06,16.06,0,0,0-16.05-16.05H44.57a16.06,16.06,0,0,0-16,16.05v24.68a16,16,0,0,0,16.05,16.05h58.05L4.7,467.83a16,16,0,0,0,0,22.7L21.47,507.3a16,16,0,0,0,22.7,0Z" />
</svg>
