<svg aria-hidden="true" data-icon="forward-10" role="img" xmlns="http://www.w3.org/2000/svg" viewBox="0 0 458.45 512">
    <path fill="currentColor" d="M160.71,362.27h19.68a7.55,7.55,0,0,0,7.51-7.56V210.83a7.52,7.52,0,0,0-7.51-7.52H163.45a7.41,7.41,0,0,0-2.94.58l-32.93,14a7.52,7.52,0,0,0-4.6,6.94v15.68l.4,2.37a7.46,7.46,0,0,0,3.78,4.37,7.38,7.38,0,0,0,5.73.39l20.3-6.76V354.71A7.56,7.56,0,0,0,160.71,362.27Z" />
    <path fill="currentColor" d="M217.27,237.8v89.94c0,22.91,11.6,34.53,34.5,34.53H300.4c22.88,0,34.5-11.62,34.5-34.53V237.8c0-22.89-11.62-34.49-34.5-34.49H251.77C228.87,203.31,217.27,214.91,217.27,237.8ZM252,326.24V239.3c0-3.14,0-3.41,3.61-3.41h40.93c3.59,0,3.59.27,3.59,3.41v86.94c0,3.18,0,3.41-3.59,3.41H255.62C252,329.65,252,329.42,252,326.24Z" />
    <path fill="currentColor" d="M443.4,267.71a15.05,15.05,0,0,0-15.06,15.06c0,109.79-89.32,199.11-199.11,199.11S30.12,392.56,30.12,282.77c0-106.38,83.92-193.28,189-198.6l-28.33,30a15.06,15.06,0,0,0,21.91,20.68l52.53-55.68a15.07,15.07,0,0,0-.27-21L211.4,4.44a15.07,15.07,0,0,0-21.35,21.27L218.34,54.1C97,59.84,0,160.06,0,282.77,0,409.18,102.83,512,229.23,512S458.45,409.18,458.45,282.77A15,15,0,0,0,443.4,267.71Z" />
</svg>
