<svg aria-hidden="true" data-icon="gear" role="img"
  xmlns="http://www.w3.org/2000/svg" viewBox="0 0 506.54 512">
  <path fill="currentColor" d="M381.75,412.13a208.88,208.88,0,0,1-54.8,30l-11.88,57.13A16,16,0,0,1,299.4,512H207.14a16,16,0,0,1-15.67-12.74l-11.88-57.13a208.88,208.88,0,0,1-54.8-30l-57.65,19A16,16,0,0,1,48.28,424L2.14,344.05a16,16,0,0,1,3.21-19.94l43.17-38.53a193.86,193.86,0,0,1,0-59.16L5.35,187.89A16,16,0,0,1,2.14,168l46.14-79.9a16,16,0,0,1,18.86-7.2l57.65,19a208.88,208.88,0,0,1,54.8-30l11.88-57.13A16,16,0,0,1,207.14,0H299.4a16,16,0,0,1,15.67,12.74L327,69.87a208.88,208.88,0,0,1,54.8,30l57.65-19a16,16,0,0,1,18.86,7.2L504.4,168a16,16,0,0,1-3.21,19.94L458,226.42a193.86,193.86,0,0,1,0,59.16l43.17,38.53a16,16,0,0,1,3.21,19.94L458.26,424a16,16,0,0,1-18.86,7.2ZM253.27,398.22c81.67,0,147.87-63.67,147.87-142.22s-66.2-142.22-147.87-142.22S105.4,177.45,105.4,256,171.6,398.22,253.27,398.22Z" />
</svg>
