<svg aria-hidden="true" data-icon="backwards-10" role="img"
  xmlns="http://www.w3.org/2000/svg" viewBox="0 0 458.48 512">
  <path fill="currentColor" d="M127.17,247.2a7.33,7.33,0,0,0,5.73.4l20.3-6.77V354.7a7.57,7.57,0,0,0,7.53,7.56H180.4a7.56,7.56,0,0,0,7.52-7.56V210.81a7.53,7.53,0,0,0-7.52-7.52H163.46a7.41,7.41,0,0,0-2.94.58l-32.93,14a7.52,7.52,0,0,0-4.6,6.95v15.67l.4,2.37A7.43,7.43,0,0,0,127.17,247.2Z" />
  <path fill="currentColor" d="M300.42,362.26c22.88,0,34.5-11.62,34.5-34.53V237.79c0-22.9-11.62-34.5-34.5-34.5H251.79c-22.9,0-34.5,11.6-34.5,34.5v89.94c0,22.91,11.6,34.53,34.5,34.53Zm-48.4-36V239.29c0-3.15,0-3.42,3.62-3.42h40.93c3.59,0,3.59.27,3.59,3.42v86.94c0,3.18,0,3.41-3.59,3.41H255.64C252,329.64,252,329.41,252,326.23Z" />
  <path fill="currentColor" d="M240.11,54.07l28.28-28.39A15.07,15.07,0,0,0,247,4.41L193.48,58.19a15.07,15.07,0,0,0-.28,21l52.54,55.68a15.06,15.06,0,1,0,21.91-20.67l-28.33-30c105.1,5.3,189.05,92.21,189.05,198.61,0,109.8-89.33,199.12-199.13,199.12S30.12,392.56,30.12,282.76a15.06,15.06,0,0,0-30.12,0C0,409.17,102.84,512,229.24,512S458.48,409.17,458.48,282.76C458.48,160,361.46,59.8,240.11,54.07Z" />
</svg>
