<svg aria-hidden="true" data-icon="live-red" role="img" xmlns="http://www.w3.org/2000/svg" viewBox="0 0 512 264.83">
    <rect fill="#E4002B" width="512" height="264.83" rx="17.09" />
    <polygon fill="#fff" class="cls-1" points="83.6 194.21 83.6 70.62 112.91 70.62 112.91 168.43 164.28 168.43 164.28 194.21 83.6 194.21" />
    <rect fill="#fff" class="cls-2" x="181.05" y="70.62" width="29.31" height="123.59" />
    <polygon fill="#fff" class="cls-1" points="262.44 194.21 224.66 70.62 256.44 70.62 279.75 162.96 303.05 70.62 333.95 70.62 296.17 194.21 262.44 194.21" />
    <polygon fill="#fff" class="cls-1" points="348.07 194.21 348.07 70.62 433.17 70.62 433.17 96.04 377.38 96.04 377.38 118.47 422.05 118.47 422.05 143.54 377.38 143.54 377.38 168.78 433.17 168.78 433.17 194.21 348.07 194.21" />
</svg>
