<svg aria-hidden="true" data-icon="volume-medium" role="img" xmlns="http://www.w3.org/2000/svg" viewBox="0 0 511.71 512">
    <path fill="currentColor" d="M283.09,362.32a113.26,113.26,0,0,0,.2-213.15,498.74,498.74,0,0,1,13.78-49.9l.19-.57a165.52,165.52,0,0,1-.3,314.11l-.09-.27A496.63,496.63,0,0,1,283.09,362.32Zm-8.55-159.9a61,61,0,0,1-.1,106.63A496.86,496.86,0,0,1,274.54,202.42ZM16.1,173.73h99l84-108.61A16.1,16.1,0,0,1,228,75V435.34a16.1,16.1,0,0,1-29.08,9.53l-83.76-114h-99A16.1,16.1,0,0,1,0,314.72V189.83A16.1,16.1,0,0,1,16.1,173.73Z" />
</svg>
