<svg aria-hidden="true" data-icon="volume-mute" role="img" xmlns="http://www.w3.org/2000/svg" viewBox="0 0 511.71 512">
    <path fill="currentColor" d="M511.71,256c0,117.6-75.68,217.53-181,253.75a119.86,119.86,0,0,1-11.39-24.63l-7.86-23.69C397.62,432.89,459.77,351.7,459.77,256a215.28,215.28,0,0,0-26.45-103.74l36.19-40.75A267,267,0,0,1,511.71,256Zm-103.89,0a163.83,163.83,0,0,0-11.94-61.61l-41,46.21a112.73,112.73,0,0,1-73.52,121.35A493.83,493.83,0,0,0,295,411.85l.09.27A164.51,164.51,0,0,0,407.82,256ZM198.67,445.16a16,16,0,0,0,28.88-9.48V384l-40.42,45.52Zm74-240.27-45.15,50.84V76.24a16,16,0,0,0-28.64-9.8l-84,108.39H16a16,16,0,0,0-16,16V315.35a16,16,0,0,0,16,16h98.92l20.62,28L0,512H57L510.83.86,510,0H454.63L412.1,47.9A267.21,267.21,0,0,0,331,2.35a119.74,119.74,0,0,0-11.18,24.22l-8,24.11C336,58.74,358,71.33,377.53,86.84l-34.44,38.78A163.36,163.36,0,0,0,295.41,100l-.19.57a495.2,495.2,0,0,0-13.69,49.59,111.33,111.33,0,0,1,26.93,14.5l-34.69,39.06" />
</svg>
